<svg width="55" height="55" viewBox="0 0 55 55" fill="none" xmlns="http://www.w3.org/2000/svg">
<circle cx="27.5" cy="27.5" r="27.5" fill="url(#paint0_linear_1_3512)"/>
<path d="M23 22.5C22.4477 22.5 22 22.9477 22 23.5V23.75C22 24.3023 22.4477 24.75 23 24.75H24.375C24.9273 24.75 25.375 25.1977 25.375 25.75V30.5C25.375 31.0523 25.8227 31.5 26.375 31.5H26.625C27.1773 31.5 27.625 31.0523 27.625 30.5V25.75C27.625 25.1977 28.0727 24.75 28.625 24.75H30C30.5523 24.75 31 24.3023 31 23.75V23.5C31 22.9477 30.5523 22.5 30 22.5H23ZM19 22.5H14.5C13.675 22.5 13 23.175 13 24V30.5C13 31.0523 13.4477 31.5 14 31.5H14.25C14.8023 31.5 15.25 31.0523 15.25 30.5V30.25C15.25 29.6977 15.6977 29.25 16.25 29.25H17.25C17.8023 29.25 18.25 29.6977 18.25 30.25V30.5C18.25 31.0523 18.6977 31.5 19.25 31.5H19.5C20.0523 31.5 20.5 31.0523 20.5 30.5V24C20.5 23.175 19.825 22.5 19 22.5ZM18.25 26C18.25 26.5523 17.8023 27 17.25 27H16.25C15.6977 27 15.25 26.5523 15.25 26V25.75C15.25 25.1977 15.6977 24.75 16.25 24.75H17.25C17.8023 24.75 18.25 25.1977 18.25 25.75V26ZM41.5 22.5H34.75C33.925 22.5 33.25 23.175 33.25 24V30.5C33.25 31.0523 33.6977 31.5 34.25 31.5H34.5C35.0523 31.5 35.5 31.0523 35.5 30.5V25.5C35.5 25.0858 35.8358 24.75 36.25 24.75C36.6642 24.75 37 25.0858 37 25.5V29C37 29.5523 37.4477 30 38 30H38.25C38.8023 30 39.25 29.5523 39.25 29V25.485C39.25 25.0708 39.5858 24.735 40 24.735C40.4142 24.735 40.75 25.0708 40.75 25.485V30.5C40.75 31.0523 41.1977 31.5 41.75 31.5H42C42.5523 31.5 43 31.0523 43 30.5V24C43 23.175 42.325 22.5 41.5 22.5Z" fill="white"/>
<defs>
<linearGradient id="paint0_linear_1_3512" x1="55" y1="27.5" x2="0" y2="27.5" gradientUnits="userSpaceOnUse">
<stop stop-color="#C0A720"/>
<stop offset="1" stop-color="#E21A1A"/>
</linearGradient>
</defs>
</svg>
