<svg width="55" height="55" viewBox="0 0 55 55" fill="none" xmlns="http://www.w3.org/2000/svg">
<circle cx="27.5" cy="27.5" r="27.5" fill="url(#paint0_linear_1_3540)"/>
<path d="M37.8125 17.1875H17.1875C15.7566 17.1875 14.6223 18.3348 14.6223 19.7656L14.6094 35.2344C14.6094 36.6652 15.7566 37.8125 17.1875 37.8125H37.8125C39.2434 37.8125 40.3906 36.6652 40.3906 35.2344V19.7656C40.3906 18.3348 39.2434 17.1875 37.8125 17.1875ZM37.8125 34.2344C37.8125 34.7867 37.3648 35.2344 36.8125 35.2344H18.1875C17.6352 35.2344 17.1875 34.7867 17.1875 34.2344V28.5C17.1875 27.9477 17.6352 27.5 18.1875 27.5H36.8125C37.3648 27.5 37.8125 27.9477 37.8125 28.5V34.2344ZM37.8125 21.3438C37.8125 21.896 37.3648 22.3438 36.8125 22.3438H18.1875C17.6352 22.3438 17.1875 21.896 17.1875 21.3438V20.7656C17.1875 20.2133 17.6352 19.7656 18.1875 19.7656H36.8125C37.3648 19.7656 37.8125 20.2133 37.8125 20.7656V21.3438Z" fill="white"/>
<defs>
<linearGradient id="paint0_linear_1_3540" x1="55" y1="27.5" x2="0" y2="27.5" gradientUnits="userSpaceOnUse">
<stop stop-color="#C0A720"/>
<stop offset="1" stop-color="#E21A1A"/>
</linearGradient>
</defs>
</svg>
