<svg width="16" height="17" viewBox="0 0 16 17" fill="none" xmlns="http://www.w3.org/2000/svg">
<path d="M7.99998 1.83337C4.31998 1.83337 1.33331 4.82004 1.33331 8.50004C1.33331 12.18 4.31998 15.1667 7.99998 15.1667C11.68 15.1667 14.6666 12.18 14.6666 8.50004C14.6666 4.82004 11.68 1.83337 7.99998 1.83337ZM7.99998 11.8334C7.63331 11.8334 7.33331 11.5334 7.33331 11.1667V8.50004C7.33331 8.13337 7.63331 7.83337 7.99998 7.83337C8.36665 7.83337 8.66665 8.13337 8.66665 8.50004V11.1667C8.66665 11.5334 8.36665 11.8334 7.99998 11.8334ZM8.66665 6.50004H7.33331V5.16671H8.66665V6.50004Z" fill="#999999"/>
</svg>
