<svg width="55" height="55" viewBox="0 0 55 55" fill="none" xmlns="http://www.w3.org/2000/svg">
<circle cx="27.5" cy="27.5" r="27.5" fill="url(#paint0_linear_1_3526)"/>
<path d="M21.653 26.2188C21.653 25.6665 21.2052 25.2188 20.653 25.2188H20.1266C19.5744 25.2188 19.1266 25.6665 19.1266 26.2188V32.9688C19.1266 33.521 19.5744 33.9688 20.1266 33.9688H20.653C21.2052 33.9688 21.653 33.521 21.653 32.9688V26.2188ZM29.2319 26.2188C29.2319 25.6665 28.7842 25.2188 28.2319 25.2188H27.7056C27.1533 25.2188 26.7056 25.6665 26.7056 26.2188V32.9688C26.7056 33.521 27.1533 33.9688 27.7056 33.9688H28.2319C28.7842 33.9688 29.2319 33.521 29.2319 32.9688V26.2188ZM39.9688 37.4688C39.9688 36.9165 39.521 36.4688 38.9688 36.4688H16.9688C16.4165 36.4688 15.9688 36.9165 15.9688 37.4688V37.9688C15.9688 38.521 16.4165 38.9688 16.9688 38.9688H38.9688C39.521 38.9688 39.9688 38.521 39.9688 37.9688V37.4688ZM36.8109 26.2188C36.8109 25.6665 36.3631 25.2188 35.8109 25.2188H35.2845C34.7323 25.2188 34.2845 25.6665 34.2845 26.2188V32.9688C34.2845 33.521 34.7323 33.9688 35.2845 33.9688H35.8109C36.3631 33.9688 36.8109 33.521 36.8109 32.9688V26.2188ZM27.5071 17.034C27.7964 16.8834 28.1411 16.8834 28.4304 17.034L30.9239 18.3317C31.8521 18.8148 31.5087 20.2188 30.4622 20.2188H25.4753C24.4288 20.2188 24.0854 18.8148 25.0136 18.3317L27.5071 17.034ZM28.4307 14.2093C28.1412 14.0586 27.7963 14.0586 27.5068 14.2093L16.5068 19.9385C16.1762 20.1107 15.9688 20.4526 15.9688 20.8254V21.7188C15.9688 22.271 16.4165 22.7188 16.9688 22.7188H38.9688C39.521 22.7188 39.9688 22.271 39.9688 21.7188V20.8254C39.9688 20.4526 39.7613 20.1107 39.4307 19.9385L28.4307 14.2093Z" fill="white"/>
<defs>
<linearGradient id="paint0_linear_1_3526" x1="55" y1="27.5" x2="0" y2="27.5" gradientUnits="userSpaceOnUse">
<stop stop-color="#C0A720"/>
<stop offset="1" stop-color="#E21A1A"/>
</linearGradient>
</defs>
</svg>
