<svg width="56" height="56" viewBox="0 0 56 56" fill="none" xmlns="http://www.w3.org/2000/svg">
<rect width="56" height="56" rx="28" fill="#0055B8" fill-opacity="0.1"/>
<g clip-path="url(#clip0_1_3481)">
<path d="M30 28C30 29.103 29.103 30 28 30C26.897 30 26 29.103 26 28C26 26.897 26.897 26 28 26C29.103 26 30 26.897 30 28ZM40.001 31.548C40.001 33.611 38.701 35.492 36.767 36.229C35.426 36.741 34.159 37 32.999 37C31.365 37 29.901 36.601 28.486 36.215C27.138 35.847 25.866 35.5 24.5 35.5C22.929 35.5 21.938 35.601 21.081 35.849C19.875 36.196 18.607 35.962 17.601 35.205C16.584 34.44 16.001 33.272 16.001 32V24.452C16.001 22.389 17.3 20.508 19.234 19.771C20.575 19.259 21.843 19 23.002 19C24.636 19 26.099 19.399 27.515 19.785C28.863 20.153 30.135 20.5 31.501 20.5C33.071 20.5 34.063 20.399 34.92 20.151C36.128 19.804 37.396 20.038 38.401 20.795C39.418 21.56 40.001 22.728 40.001 24V31.548ZM22.001 30C22.001 29.448 21.553 29 21.001 29C20.449 29 20.001 29.448 20.001 30C20.001 30.552 20.449 31 21.001 31C21.553 31 22.001 30.552 22.001 30ZM22.001 24C22.001 23.448 21.553 23 21.001 23C20.449 23 20.001 23.448 20.001 24C20.001 24.552 20.449 25 21.001 25C21.553 25 22.001 24.552 22.001 24ZM32.001 28C32.001 25.794 30.207 24 28.001 24C25.795 24 24.001 25.794 24.001 28C24.001 30.206 25.795 32 28.001 32C30.207 32 32.001 30.206 32.001 28ZM36.001 32C36.001 31.448 35.553 31 35.001 31C34.449 31 34.001 31.448 34.001 32C34.001 32.552 34.449 33 35.001 33C35.553 33 36.001 32.552 36.001 32ZM36.001 26C36.001 25.448 35.553 25 35.001 25C34.449 25 34.001 25.448 34.001 26C34.001 26.552 34.449 27 35.001 27C35.553 27 36.001 26.552 36.001 26Z" fill="#E21A1A"/>
</g>
<defs>
<clipPath id="clip0_1_3481">
<rect width="24" height="24" fill="white" transform="translate(16 16)"/>
</clipPath>
</defs>
</svg>
